<?xml version="1.0" encoding="UTF-8" standalone="no"?>
<svg
   xmlns:dc="http://purl.org/dc/elements/1.1/"
   xmlns:cc="http://creativecommons.org/ns#"
   xmlns:rdf="http://www.w3.org/1999/02/22-rdf-syntax-ns#"
   xmlns:svg="http://www.w3.org/2000/svg"
   xmlns="http://www.w3.org/2000/svg"
   xmlns:sodipodi="http://sodipodi.sourceforge.net/DTD/sodipodi-0.dtd"
   xmlns:inkscape="http://www.inkscape.org/namespaces/inkscape"
   viewBox="0 0 512 512"
   version="1.1"
   id="svg4"
   sodipodi:docname="trending-up.svg"
   inkscape:version="0.92.1 r15371">
  <metadata
     id="metadata10">
    <rdf:RDF>
      <cc:Work
         rdf:about="">
        <dc:format>image/svg+xml</dc:format>
        <dc:type
           rdf:resource="http://purl.org/dc/dcmitype/StillImage" />
      </cc:Work>
    </rdf:RDF>
  </metadata>
  <defs
     id="defs8" />
  <sodipodi:namedview
     pagecolor="#ffffff"
     bordercolor="#666666"
     borderopacity="1"
     objecttolerance="10"
     gridtolerance="10"
     guidetolerance="10"
     inkscape:pageopacity="0"
     inkscape:pageshadow="2"
     inkscape:window-width="640"
     inkscape:window-height="480"
     id="namedview6"
     showgrid="false"
     inkscape:zoom="0.4609375"
     inkscape:cx="256"
     inkscape:cy="256"
     inkscape:window-x="0"
     inkscape:window-y="28"
     inkscape:window-maximized="0"
     inkscape:current-layer="svg4" />
  <path
     d="M464.9 128H344.1c-8.3 0-15.1 6.6-15.1 14.8s6.8 14.8 15.1 14.8h83.7l-138 142.2-85.9-84.1c-2.9-2.8-6.6-4.3-10.7-4.3-4 0-7.8 1.5-10.7 4.3L36.2 358.8c-1.9 1.9-4.2 5.2-4.2 10.7 0 4.1 1.4 7.5 4.2 10.2 2.9 2.8 6.6 4.3 10.7 4.3 4 0 7.8-1.5 10.7-4.3L193.2 247l85.9 84.1c2.9 2.8 6.6 4.3 10.7 4.3 4 0 7.8-1.5 10.7-4.3l149.4-151.9v81.7c0 8.1 6.8 14.8 15.1 14.8s15.1-6.6 15.1-14.8V142.8c-.1-8.2-6.9-14.8-15.2-14.8z"
     id="path2"
     style="fill:#ffffff" />
</svg>
